# xmcd CD database file
#
# Track frame offsets:
#	150
#	1781
#	14838
#	17127
#	54277
#	85481
#	86773
#	96388
#	97717
#	117833
#	138078
#	138807
#	156191
#	170410
#	173973
#	196660
#	239130
#	262493
#	266013
#	287961
#
# Disc length: 4138 seconds
#
# Revision: 0
# Processed by: cddbd v1.5.1PL0 Copyright (c) Steve Scherf et al.
# Submitted via: CDex 1.51
#
DISCID=16102814
DTITLE=Huge Voodo - affordable magic
DYEAR=2003
DGENRE=Hip-Hop
TTITLE0=Intro
TTITLE1=The Pleasure Factory
TTITLE2=Interlude #1
TTITLE3=Phat Chance of the Felonious Monks
TTITLE4=Soul Slide  featuring El-P
TTITLE5=Interlude #2
TTITLE6=If I Were a Man  featuring Dominique Lowell
TTITLE7=Interlude #3
TTITLE8=Melo  featuring Mike Mesmer
TTITLE9=NYPD Blues  featuring Mike Ladd
TTITLE10=Interlude #4
TTITLE11=Ping-Pong
TTITLE12=PS (Polly Six)
TTITLE13=Interlude #5
TTITLE14=Duet  featuring Jesse Butz
TTITLE15=Soul Jah
TTITLE16=Keep the Faith, Baby  featuring Adam Clayton Powell Jr.
TTITLE17=Interlude #6
TTITLE18=Brutus
TTITLE19=Next Time  featuring Roughstars
EXTD=YEAR: 2003
EXTT0=
EXTT1=
EXTT2=
EXTT3=
EXTT4=
EXTT5=
EXTT6=
EXTT7=
EXTT8=
EXTT9=
EXTT10=
EXTT11=
EXTT12=
EXTT13=
EXTT14=
EXTT15=
EXTT16=
EXTT17=
EXTT18=
EXTT19=
PLAYORDER=
